<?xml version="1.0" encoding="UTF-8" standalone="no"?>
<!DOCTYPE svg PUBLIC "-//W3C//DTD SVG 1.1//EN"
 "http://www.w3.org/Graphics/SVG/1.1/DTD/svg11.dtd">
<!-- Generated by graphviz version 2.34.0 (20140130.1255)
 -->
<!-- Title: G Pages: 1 -->
<svg width="1128pt" height="566pt"
 viewBox="0.00 0.00 1128.00 565.78" xmlns="http://www.w3.org/2000/svg" xmlns:xlink="http://www.w3.org/1999/xlink">
<g id="graph0" class="graph" transform="scale(1 1) rotate(0) translate(72 493.78)">
<title>G</title>
<polygon fill="white" stroke="white" points="-72,72 -72,-493.78 1056,-493.78 1056,72 -72,72"/>
<g id="clust1" class="cluster"><title>cluster</title>
<polygon fill="none" stroke="black" points="12,-8 12,-150 380,-150 380,-8 12,-8"/>
<text text-anchor="middle" x="196" y="-126" font-family="HelveticaNeue-Thin" font-size="20.00">Legend</text>
</g>
<!-- key -->
<g id="node1" class="node"><title>key</title>
<text text-anchor="start" x="30.28" y="-82.59" font-family="HelveticaNeue-Thin" font-size="20.00">send message</text>
<text text-anchor="start" x="102.64" y="-54" font-family="HelveticaNeue-Thin" font-size="20.00">create</text>
<text text-anchor="start" x="67.4" y="-26" font-family="HelveticaNeue-Thin" font-size="20.00">store state</text>
</g>
<!-- key2 -->
<g id="node2" class="node"><title>key2</title>
<text text-anchor="start" x="326.22" y="-82.59" font-family="HelveticaNeue-Thin" font-size="20.00"> </text>
<text text-anchor="start" x="326.22" y="-54" font-family="HelveticaNeue-Thin" font-size="20.00"> </text>
<text text-anchor="start" x="326.22" y="-26" font-family="HelveticaNeue-Thin" font-size="20.00"> </text>
</g>
<!-- key&#45;&gt;key2 -->
<g id="edge1" class="edge"><title>key:i1:e&#45;&gt;key2:i1:w</title>
<path fill="none" stroke="black" stroke-width="0.5" d="M157,-91C228.328,-91 247.936,-91 315.83,-91"/>
<polygon fill="black" stroke="black" points="316,-93.4501 323,-91 316,-88.5501 316,-93.4501"/>
</g>
<!-- key&#45;&gt;key2 -->
<g id="edge2" class="edge"><title>key:i2:e&#45;&gt;key2:i2:w</title>
<path fill="none" stroke="black" stroke-width="0.5" stroke-dasharray="1,5" d="M157,-62C228.328,-62 247.936,-62 315.83,-62"/>
<polygon fill="black" stroke="black" points="316,-64.4501 323,-62 316,-59.5501 316,-64.4501"/>
</g>
<!-- key&#45;&gt;key2 -->
<g id="edge3" class="edge"><title>key:i3:e&#45;&gt;key2:i3:w</title>
<path fill="none" stroke="black" stroke-width="0.5" stroke-dasharray="5,2" d="M157,-34C228.328,-34 247.936,-34 315.83,-34"/>
<polygon fill="black" stroke="black" points="316,-36.4501 323,-34 316,-31.5501 316,-36.4501"/>
</g>
<!-- input -->
<g id="node3" class="node"><title>input</title>
</g>
<!-- app -->
<g id="node5" class="node"><title>app</title>
<polygon fill="none" stroke="black" stroke-width="0.5" points="268,-407 182,-407 182,-321 268,-321 268,-407"/>
<text text-anchor="middle" x="225" y="-356.09" font-family="HelveticaNeue-Thin" font-size="20.00">app.get</text>
</g>
<!-- input&#45;&gt;app -->
<g id="edge6" class="edge"><title>input&#45;&gt;app</title>
<path fill="none" stroke="black" stroke-width="0.5" d="M2.1609,-364C6.80068,-364 110.714,-364 174.653,-364"/>
<polygon fill="black" stroke="black" points="174.86,-366.45 181.86,-364 174.86,-361.55 174.86,-366.45"/>
<text text-anchor="middle" x="92" y="-368.18" font-family="HelveticaNeue-Thin" font-size="20.00">request</text>
</g>
<!-- output -->
<g id="node4" class="node"><title>output</title>
</g>
<!-- send -->
<g id="node6" class="node"><title>send</title>
<polygon fill="none" stroke="black" stroke-width="0.5" points="268,-244 182,-244 182,-158 268,-158 268,-244"/>
<text text-anchor="middle" x="225" y="-193.09" font-family="HelveticaNeue-Thin" font-size="20.00">send</text>
</g>
<!-- app&#45;&gt;send -->
<g id="edge10" class="edge"><title>app&#45;&gt;send</title>
<path fill="none" stroke="black" stroke-width="0.5" stroke-dasharray="1,5" d="M225,-320.828C225,-299.478 225,-273.584 225,-251.337"/>
<polygon fill="black" stroke="black" points="227.45,-251.253 225,-244.253 222.55,-251.253 227.45,-251.253"/>
<text text-anchor="middle" x="205.2" y="-279.3" font-family="HelveticaNeue-Thin" font-size="20.00">① send_uuid</text>
</g>
<!-- router -->
<g id="node8" class="node"><title>router</title>
<ellipse fill="none" stroke="black" stroke-width="0.5" cx="433" cy="-364" rx="43" ry="43"/>
<text text-anchor="middle" x="433" y="-356.09" font-family="HelveticaNeue-Thin" font-size="20.00">router</text>
</g>
<!-- app&#45;&gt;router -->
<g id="edge7" class="edge"><title>app&#45;&gt;router</title>
<path fill="none" stroke="black" stroke-width="0.5" d="M268.184,-364C301.372,-364 347.685,-364 382.603,-364"/>
<polygon fill="black" stroke="black" points="382.872,-366.45 389.872,-364 382.872,-361.55 382.872,-366.45"/>
<text text-anchor="middle" x="329" y="-401.78" font-family="HelveticaNeue-Thin" font-size="20.00">② router</text>
<text text-anchor="middle" x="329" y="-368.18" font-family="HelveticaNeue-Thin" font-size="20.00">(id, uuid)</text>
</g>
<!-- send&#45;&gt;output -->
<g id="edge9" class="edge"><title>send&#45;&gt;output</title>
<path fill="none" stroke="black" stroke-width="0.5" d="M181.86,-201C127.236,-201 35.838,-201 9.38142,-201"/>
<polygon fill="black" stroke="black" points="9.16094,-198.55 2.1609,-201 9.16087,-203.45 9.16094,-198.55"/>
<text text-anchor="middle" x="92" y="-205.18" font-family="HelveticaNeue-Thin" font-size="20.00">response</text>
</g>
<!-- mbox -->
<g id="node7" class="node"><title>mbox</title>
<polygon fill="none" stroke="black" stroke-width="0.5" points="683,-382 647,-382 647,-346 683,-346 683,-382"/>
</g>
<!-- add -->
<g id="node9" class="node"><title>add</title>
<ellipse fill="none" stroke="black" stroke-width="0.5" cx="941" cy="-364" rx="43" ry="43"/>
<text text-anchor="middle" x="941" y="-356.09" font-family="HelveticaNeue-Thin" font-size="20.00">add</text>
</g>
<!-- mbox&#45;&gt;add -->
<g id="edge5" class="edge"><title>mbox&#45;&gt;add</title>
<path fill="none" stroke="black" stroke-width="0.5" d="M683.14,-364C724.034,-364 828.549,-364 890.934,-364"/>
<polygon fill="black" stroke="black" points="890.953,-366.45 897.953,-364 890.953,-361.55 890.953,-366.45"/>
</g>
<!-- router&#45;&gt;mbox -->
<g id="edge4" class="edge"><title>router&#45;&gt;mbox</title>
<path fill="none" stroke="black" stroke-width="0.5" d="M476.186,-364C527.282,-364 610.957,-364 646.813,-364"/>
<text text-anchor="middle" x="550" y="-401.78" font-family="HelveticaNeue-Thin" font-size="20.00">⑤ send_id</text>
<text text-anchor="middle" x="550" y="-368.18" font-family="HelveticaNeue-Thin" font-size="20.00">(id, uuid)</text>
</g>
<!-- router&#45;&gt;mbox -->
<g id="edge12" class="edge"><title>router&#45;&gt;mbox</title>
<path fill="none" stroke="black" stroke-width="0.5" stroke-dasharray="5,2" d="M467.638,-338.394C475.85,-333.459 484.903,-329.015 494,-326.4 541.841,-312.649 558.266,-312.282 606,-326.4 618.505,-330.099 630.845,-337.433 640.907,-344.649"/>
<polygon fill="black" stroke="black" points="639.475,-346.638 646.551,-348.856 642.403,-342.709 639.475,-346.638"/>
<text text-anchor="middle" x="550" y="-339.6" font-family="HelveticaNeue-Thin" font-size="20.00">④ count=0</text>
</g>
<!-- router&#45;&gt;add -->
<g id="edge11" class="edge"><title>router&#45;&gt;add</title>
<path fill="none" stroke="black" stroke-width="0.5" stroke-dasharray="1,5" d="M462.379,-332.059C471.586,-323.733 482.435,-315.767 494,-311 547.509,-288.945 566.148,-305.09 624,-303.4 737.741,-300.078 774.765,-263.715 880,-307 890.148,-311.174 899.582,-317.931 907.824,-325.358"/>
<polygon fill="black" stroke="black" points="906.568,-327.544 913.333,-330.584 909.94,-323.989 906.568,-327.544"/>
<text text-anchor="middle" x="665" y="-316.6" font-family="HelveticaNeue-Thin" font-size="20.00">③ add_id</text>
</g>
<!-- add&#45;&gt;send -->
<g id="edge8" class="edge"><title>add&#45;&gt;send</title>
<path fill="none" stroke="black" stroke-width="0.5" d="M921.032,-325.524C911.049,-309.244 897.263,-291.623 880,-281 683.432,-160.034 390.44,-180.057 275.139,-193.966"/>
<polygon fill="black" stroke="black" points="274.78,-191.541 268.133,-194.83 275.38,-196.404 274.78,-191.541"/>
<text text-anchor="middle" x="550" y="-230.78" font-family="HelveticaNeue-Thin" font-size="20.00">⑦ send_uuid</text>
<text text-anchor="middle" x="550" y="-197.18" font-family="HelveticaNeue-Thin" font-size="20.00">(id, count)</text>
</g>
<!-- add&#45;&gt;mbox -->
<g id="edge13" class="edge"><title>add&#45;&gt;mbox</title>
<path fill="none" stroke="black" stroke-width="0.5" stroke-dasharray="5,2" d="M906.362,-338.394C898.15,-333.459 889.097,-329.015 880,-326.4 813.365,-307.246 790.486,-306.735 724,-326.4 711.495,-330.099 699.155,-337.433 689.093,-344.649"/>
<polygon fill="black" stroke="black" points="687.597,-342.709 683.449,-348.856 690.525,-346.638 687.597,-342.709"/>
<text text-anchor="middle" x="802" y="-339.6" font-family="HelveticaNeue-Thin" font-size="20.00">⑥ count=count+1</text>
</g>
</g>
</svg>
